<svg width="14" height="16" viewBox="0 0 14 16" fill="none" xmlns="http://www.w3.org/2000/svg">
<g clip-path="url(#clip0_183_13892)">
<path d="M2.05469 3.84863H3.13802H11.8047" stroke="#25282B" stroke-width="1.08333" stroke-linecap="round" stroke-linejoin="round"/>
<path d="M4.76172 3.84898V2.59734C4.76172 2.26539 4.87586 1.94703 5.07902 1.7123C5.28218 1.47757 5.55773 1.3457 5.84505 1.3457H8.01172C8.29904 1.3457 8.57459 1.47757 8.77775 1.7123C8.98092 1.94703 9.09505 2.26539 9.09505 2.59734V3.84898M10.7201 3.84898V12.6105C10.7201 12.9424 10.6059 13.2608 10.4028 13.4955C10.1996 13.7302 9.92404 13.8621 9.63672 13.8621H4.22005C3.93273 13.8621 3.65718 13.7302 3.45402 13.4955C3.25086 13.2608 3.13672 12.9424 3.13672 12.6105V3.84898H10.7201Z" stroke="#25282B" stroke-width="1.08333" stroke-linecap="round" stroke-linejoin="round"/>
<path d="M5.84766 6.97754V10.7325" stroke="#25282B" stroke-width="1.08333" stroke-linecap="round" stroke-linejoin="round"/>
<path d="M8.01172 6.97754V10.7325" stroke="#25282B" stroke-width="1.08333" stroke-linecap="round" stroke-linejoin="round"/>
</g>
<defs>
<clipPath id="clip0_183_13892">
<rect width="13" height="15.0197" fill="white" transform="translate(0.429688 0.09375)"/>
</clipPath>
</defs>
</svg>
