<svg width="16" height="16" viewBox="0 0 16 16" fill="none" xmlns="http://www.w3.org/2000/svg">
<path d="M1.82039 7.89119C1.82039 7.78245 1.82039 7.68925 1.83595 7.58051L0.0155589 7.4873C0.0155589 7.61158 0 7.75138 0 7.87565C0 10.0504 0.886858 12.0232 2.31828 13.4524L3.60967 12.163C2.50498 11.0757 1.82039 9.56886 1.82039 7.89119Z" fill="url(#paint0_linear_183_14096)"/>
<path d="M7.8865 1.8331C7.99541 1.8331 8.08876 1.8331 8.19767 1.84863L8.29103 0.031159C8.16656 0.031159 8.02653 0.015625 7.90206 0.015625C5.72381 0.015625 3.74783 0.901062 2.31641 2.33019L3.6078 3.61951C4.69692 2.5166 6.22169 1.8331 7.8865 1.8331Z" fill="url(#paint1_linear_183_14096)"/>
<path d="M7.88891 13.9495C7.77999 13.9495 7.68664 13.9495 7.57773 13.934L7.48438 15.7514C7.60885 15.7514 7.74888 15.767 7.87335 15.767C10.0516 15.767 12.0276 14.8815 13.459 13.4524L12.1676 12.1631C11.0785 13.2815 9.56927 13.9495 7.88891 13.9495Z" fill="url(#paint2_linear_183_14096)"/>
<path d="M11.3097 2.88932L12.85 1.75534C11.4964 0.667961 9.76935 0 7.88672 0V1.81748C9.16255 1.83301 10.345 2.22136 11.3097 2.88932Z" fill="url(#paint3_linear_183_14096)"/>
<path d="M15.7923 7.89113C15.7923 7.40958 15.7457 6.94356 15.6679 6.47754L13.9719 7.73579C13.9719 7.78239 13.9719 7.84453 13.9719 7.89113C13.9719 9.67754 13.194 11.2775 11.9648 12.3805L13.194 13.7319C14.781 12.3028 15.7923 10.2057 15.7923 7.89113Z" fill="#21A038"/>
<path d="M7.88921 13.9492C6.09994 13.9492 4.49737 13.1725 3.39269 11.9453L2.03906 13.1725C3.48604 14.7725 5.57094 15.7667 7.88921 15.7667V13.9492Z" fill="url(#paint4_linear_183_14096)"/>
<path d="M3.82749 3.40224L2.59834 2.05078C0.99577 3.49544 0 5.57699 0 7.89156H1.82039C1.82039 6.12068 2.59834 4.50515 3.82749 3.40224Z" fill="url(#paint5_linear_183_14096)"/>
<defs>
<linearGradient id="paint0_linear_183_14096" x1="2.12997" y1="13.2312" x2="0.272074" y2="7.86942" gradientUnits="userSpaceOnUse">
<stop offset="0.1444" stop-color="#F2E913"/>
<stop offset="0.3037" stop-color="#E7E518"/>
<stop offset="0.5823" stop-color="#CADB26"/>
<stop offset="0.891" stop-color="#A3CD39"/>
</linearGradient>
<linearGradient id="paint1_linear_183_14096" x1="2.83531" y1="2.11947" x2="7.55631" y2="0.323267" gradientUnits="userSpaceOnUse">
<stop offset="0.0592" stop-color="#0FA8E0"/>
<stop offset="0.5385" stop-color="#0099F9"/>
<stop offset="0.9234" stop-color="#0291EB"/>
</linearGradient>
<linearGradient id="paint2_linear_183_14096" x1="7.37749" y1="14.2166" x2="13.0042" y2="12.947" gradientUnits="userSpaceOnUse">
<stop offset="0.1226" stop-color="#A3CD39"/>
<stop offset="0.2846" stop-color="#86C339"/>
<stop offset="0.8693" stop-color="#21A038"/>
</linearGradient>
<linearGradient id="paint3_linear_183_14096" x1="7.5127" y1="1.16286" x2="12.192" y2="2.60431" gradientUnits="userSpaceOnUse">
<stop offset="0.0566" stop-color="#0291EB"/>
<stop offset="0.79" stop-color="#0C8ACB"/>
</linearGradient>
<linearGradient id="paint4_linear_183_14096" x1="2.50192" y1="13.4677" x2="7.52658" y2="15.3421" gradientUnits="userSpaceOnUse">
<stop offset="0.1324" stop-color="#F2E913"/>
<stop offset="0.2977" stop-color="#EBE716"/>
<stop offset="0.5306" stop-color="#D9E01F"/>
<stop offset="0.8023" stop-color="#BBD62D"/>
<stop offset="0.9829" stop-color="#A3CD39"/>
</linearGradient>
<linearGradient id="paint5_linear_183_14096" x1="1.38515" y1="8.11108" x2="3.3942" y2="2.89318" gradientUnits="userSpaceOnUse">
<stop offset="0.0698" stop-color="#A3CD39"/>
<stop offset="0.2599" stop-color="#81C55F"/>
<stop offset="0.9216" stop-color="#0FA8E0"/>
</linearGradient>
</defs>
</svg>
