<svg width="15" height="13" viewBox="0 0 15 13" fill="none" xmlns="http://www.w3.org/2000/svg">
<path d="M13.025 1.88117C12.7057 1.5618 12.3267 1.30845 11.9095 1.1356C11.4924 0.962746 11.0453 0.873779 10.5937 0.873779C10.1421 0.873779 9.69502 0.962746 9.27786 1.1356C8.86069 1.30845 8.48168 1.5618 8.16245 1.88117L7.49995 2.54367L6.83745 1.88117C6.19265 1.23636 5.3181 0.874114 4.4062 0.874114C3.49431 0.874114 2.61976 1.23636 1.97495 1.88117C1.33014 2.52598 0.967896 3.40052 0.967896 4.31242C0.967896 5.22432 1.33014 6.09886 1.97495 6.74367L2.63745 7.40617L7.49995 12.2687L12.3625 7.40617L13.025 6.74367C13.3443 6.42445 13.5977 6.04543 13.7705 5.62827C13.9434 5.2111 14.0323 4.76397 14.0323 4.31242C14.0323 3.86087 13.9434 3.41373 13.7705 2.99657C13.5977 2.57941 13.3443 2.20039 13.025 1.88117V1.88117Z" stroke="#7B7E8A" stroke-linecap="round" stroke-linejoin="round"/>
</svg>
