<svg width="41" height="32" viewBox="0 0 41 32" fill="none" xmlns="http://www.w3.org/2000/svg">
<path d="M2.17536 6.60615L4.32834 4.99142H5.94307L7.5578 5.52966L8.63428 6.06791L10.249 3.91494L11.8637 2.83845H14.555L16.1697 3.91494L17.2462 4.99142L18.8609 2.83845L21.5521 1.76196H23.7051L25.3198 2.83845L25.8581 3.91494L26.9345 4.99142L28.5493 2.83845L30.164 2.30021L32.317 2.83845L33.9317 3.91494L35.0082 6.06791L35.5464 8.75912L36.0847 13.0651C36.6229 13.4239 37.6994 14.3569 37.6994 15.218C37.6994 16.0792 38.7759 18.0887 39.3141 18.9857L39.8524 21.1387V23.2917L38.2377 26.5211L36.0847 28.1359L31.2405 29.7506L29.0875 30.2889L26.9345 29.7506L25.8581 28.1359L26.3963 25.9829L29.0875 24.9064L26.3963 22.7534L25.8581 24.9064L24.7816 26.5211L22.6286 27.0594L19.9374 26.5211L18.3227 24.9064L17.2462 23.2917L16.1697 24.9064L14.555 25.4447L11.8637 24.9064L10.249 23.8299L9.17252 22.2152L8.09604 23.2917L5.40482 24.3682L2.71361 23.8299L1.63712 21.1387L1.09888 17.371V13.0651L2.17536 6.60615Z" fill="#D0D1D9"/>
<path d="M1.27281 6.96139C0.837219 8.66692 0.433578 13.6562 0.388824 14.2189C0.187492 16.7608 0.207979 19.0699 0.962945 22.0767C1.16845 22.9146 1.61628 23.6734 2.2505 24.2582C2.88473 24.8431 3.67723 25.2281 4.529 25.3652C5.38078 25.5023 6.25407 25.3854 7.03978 25.0291C7.8255 24.6728 8.48881 24.0928 8.94685 23.3617C9.44737 24.2079 10.1577 24.9107 11.0092 25.4021C11.8189 25.8787 12.7403 26.1323 13.6798 26.1371C14.4768 26.1387 15.262 25.9452 15.9669 25.5734C16.3421 25.3762 16.6905 25.1317 17.0034 24.8458C17.116 24.7407 17.2218 24.6288 17.3205 24.5106C17.7589 25.6821 18.589 26.6659 19.6701 27.295C20.4343 27.7466 21.3048 27.9869 22.1924 27.9912C23.4336 27.9803 24.6273 27.5128 25.5459 26.6779C25.5481 26.676 25.55 26.6738 25.5521 26.6718C25.4339 27.2238 25.4409 27.7952 25.5727 28.3441C25.7045 28.893 25.9577 29.4053 26.3136 29.8435C26.6696 30.2816 27.1192 30.6343 27.6295 30.8757C28.1398 31.117 28.6977 31.2409 29.2622 31.2382C29.6896 31.2383 30.1138 31.1649 30.5164 31.0214L36.816 28.6422C37.4863 28.3296 38.0877 27.8868 38.5852 27.3395C39.0828 26.7922 39.4664 26.1513 39.7139 25.4543L40.6285 22.8968C41.0704 21.7363 40.646 20.653 40.2717 19.6962L36.659 11.2035C36.5092 9.43259 36.2294 7.67509 35.8219 5.94521C35.2443 3.45874 33.4599 1.76723 31.276 1.6359C30.4545 1.58596 29.6339 1.74542 28.8909 2.09934C28.148 2.45325 27.507 2.99003 27.0282 3.65934C25.9551 1.75991 23.8464 0.634234 21.7553 0.891174C19.9749 1.11068 18.4314 2.26794 17.6413 3.94847C16.1634 2.18709 13.7764 1.41969 11.6934 2.07697C10.1823 2.5539 8.94234 3.73544 8.31066 5.27963C7.32875 4.23602 5.93552 3.73397 4.5829 3.95933C3.80208 4.09136 3.0754 4.44425 2.4888 4.97625C1.90221 5.50826 1.48024 6.19713 1.27281 6.96139ZM26.8456 24.5373C26.8985 24.3883 26.9495 24.2355 26.9971 24.0749C27.0486 24.1454 27.1017 24.2145 27.1565 24.2822L26.8523 24.531C26.8499 24.5333 26.8479 24.5353 26.8456 24.5373ZM36.7753 15.9723C36.7834 15.7271 36.7886 15.4865 36.7924 15.2488L38.9085 20.2301C39.2767 21.1705 39.4906 21.7775 39.2588 22.3807C39.2568 22.3861 39.2547 22.3913 39.2529 22.3967L38.3344 24.9639C38.1527 25.4774 37.8707 25.9496 37.5047 26.3531C37.1387 26.7565 36.696 27.0831 36.2026 27.3138L30.0252 29.6429C29.5106 29.8259 28.9481 29.8213 28.4366 29.6302C27.925 29.439 27.4974 29.0735 27.229 28.5979C26.9605 28.1224 26.8685 27.5674 26.9691 27.0307C27.0698 26.4939 27.3566 26.01 27.779 25.664L28.236 25.2902C28.3494 25.3698 28.4652 25.4469 28.586 25.5184C29.3843 25.9937 30.2959 26.2454 31.2251 26.247C32.0252 26.2468 32.814 26.0581 33.5276 25.6963C33.9011 25.509 34.2494 25.2751 34.5641 25.0002C36.3878 23.3964 36.6507 19.8146 36.7753 15.9723ZM4.82289 5.4028C5.77931 5.24317 6.77988 5.66547 7.4346 6.50421C7.57086 6.67859 7.752 6.8126 7.9586 6.89189C8.16521 6.97117 8.3895 6.99274 8.60743 6.95428C8.82536 6.91583 9.02872 6.81879 9.19571 6.67357C9.3627 6.52836 9.48702 6.34044 9.55536 6.12996C9.98059 4.84124 10.9442 3.84775 12.1333 3.47252C13.7409 2.96523 15.6112 3.63946 16.6958 5.11281C16.8065 5.26972 16.9516 5.39927 17.12 5.49157C17.2883 5.58386 17.4756 5.63646 17.6674 5.64535C17.9205 5.65175 18.1693 5.57958 18.3796 5.43877C18.59 5.29796 18.7515 5.09543 18.842 4.85904C19.3646 3.49776 20.578 2.51037 21.9332 2.34355C23.5368 2.14612 25.1648 3.09656 25.8951 4.65454C25.9889 4.85598 26.1359 5.028 26.3202 5.15206C26.5046 5.27613 26.7193 5.34753 26.9412 5.35857C27.1631 5.36961 27.3838 5.31988 27.5796 5.21472C27.7753 5.10957 27.9386 4.95299 28.052 4.76185C28.3712 4.22306 28.8328 3.78262 29.3859 3.48888C29.939 3.19514 30.5624 3.05944 31.1876 3.09668C33.0343 3.20765 34.0557 4.81197 34.3958 6.27642C34.8592 8.27023 35.4581 11.4397 35.3127 15.9249C35.232 18.4151 35.0969 22.5831 33.5973 23.9012C33.3755 24.0945 33.1301 24.2588 32.867 24.3904C32.3158 24.6732 31.7012 24.8097 31.0821 24.7867C30.463 24.7637 29.8602 24.582 29.3315 24.259C28.7751 23.9324 28.3105 23.4702 27.9811 22.9154C27.6516 22.3607 27.468 21.7316 27.4475 21.0867L27.2148 14.0803C27.2083 13.8864 27.1251 13.7029 26.9834 13.5704C26.8416 13.4378 26.6531 13.3669 26.4591 13.3734C26.2652 13.3799 26.0817 13.4631 25.9491 13.6049C25.8166 13.7466 25.7457 13.9352 25.7522 14.1291L26.001 21.1248C26.0121 21.4167 25.9957 21.7091 25.9522 21.998C25.679 23.787 25.2099 24.9979 24.5544 25.6005C23.999 26.1057 23.2965 26.4198 22.5498 26.4971C21.803 26.5743 21.0511 26.4106 20.404 26.0298C19.8097 25.6793 19.3149 25.1824 18.967 24.5865C18.619 23.9906 18.4295 23.3156 18.4163 22.6257L18.1845 15.3034C18.1814 15.2074 18.1595 15.1129 18.1199 15.0254C18.0804 14.9378 18.0239 14.8589 17.9539 14.7931C17.8838 14.7274 17.8015 14.6761 17.7116 14.6421C17.6217 14.6082 17.526 14.5923 17.4299 14.5954C17.3339 14.5984 17.2394 14.6204 17.1519 14.6599C17.0643 14.6995 16.9854 14.7559 16.9196 14.826C16.8539 14.8961 16.8026 14.9784 16.7686 15.0683C16.7347 15.1582 16.7188 15.2539 16.7219 15.3499L16.9142 21.4029C16.944 22.0976 16.7505 22.7836 16.3621 23.3604C16.2611 23.5091 16.1438 23.6461 16.0124 23.7689C15.7919 23.9699 15.5465 24.1417 15.2823 24.2801C14.1869 24.8594 12.8973 24.8072 11.7443 24.1374C11.1288 23.7883 10.6128 23.2877 10.2453 22.6829C9.87782 22.0782 9.67109 21.3896 9.64475 20.6825V16.0551C9.64767 15.8612 9.57552 15.6736 9.44337 15.5316C9.31122 15.3895 9.1293 15.3041 8.93563 15.2931C8.83767 15.2901 8.74009 15.3068 8.6487 15.3422C8.55731 15.3776 8.47396 15.431 8.40361 15.4992C8.33326 15.5675 8.27734 15.6492 8.23917 15.7394C8.201 15.8297 8.18135 15.9267 8.1814 16.0248V20.9421C8.1814 22.5409 6.96438 23.8634 5.41092 23.9526C4.72538 23.9907 4.04798 23.7888 3.49523 23.3815C2.94247 22.9742 2.54893 22.387 2.38227 21.721C1.67352 18.8978 1.65218 16.8018 1.84766 14.335C2.00619 12.3377 2.3613 8.61339 2.69067 7.3243C2.82553 6.83386 3.09798 6.39229 3.47583 6.05178C3.85368 5.71128 4.32112 5.48608 4.82289 5.4028Z" fill="black"/>
</svg>
