<svg width="30" height="36" viewBox="0 0 30 36" fill="none" xmlns="http://www.w3.org/2000/svg">
<path d="M28.8108 14.7816C29.5242 13.6887 29.3924 12.2668 28.4904 11.3236C28.0928 10.9079 27.9267 10.3239 28.0458 9.76125C28.3163 8.48445 27.6797 7.2061 26.4979 6.65253C25.977 6.40854 25.6111 5.92395 25.5189 5.35625C25.3099 4.06798 24.2545 3.1059 22.9525 3.0166C22.3787 2.97722 21.8624 2.65758 21.5713 2.16146C20.911 1.03583 19.5797 0.519942 18.333 0.906942C17.7837 1.07752 17.1869 0.965864 16.7363 0.608466C15.7139 -0.202659 14.2859 -0.202659 13.2636 0.608466C12.813 0.966005 12.216 1.07752 11.6668 0.906942C10.4205 0.519872 9.08883 1.03575 8.42852 2.16146C8.1375 2.65758 7.62127 2.97722 7.04745 3.0166C5.7454 3.1059 4.69008 4.06805 4.48097 5.35625C4.38886 5.92395 4.02288 6.40854 3.50208 6.65253C2.32027 7.20617 1.68373 8.48452 1.95408 9.76125C2.07326 10.3239 1.90704 10.908 1.50956 11.3237C0.607593 12.2668 0.475757 13.6888 1.18915 14.7817C1.50352 15.2633 1.55955 15.868 1.33898 16.3992C0.83857 17.6045 1.22944 18.978 2.28933 19.7394C2.75648 20.075 3.02712 20.6186 3.01334 21.1935C2.98219 22.4981 3.84281 23.6378 5.10619 23.9649C5.47913 24.0614 5.80312 24.2772 6.0353 24.5715L3.1297 31.5861C2.72252 32.5691 3.64411 33.5814 4.66034 33.2695L7.84141 32.2932C7.93437 32.2649 8.03463 32.3065 8.08013 32.3922L9.63916 35.3318C10.1379 36.2722 11.5051 36.2058 11.9118 35.2239L14.9402 27.9127C14.98 27.9114 15.0197 27.9114 15.0594 27.9127L18.0878 35.2239C18.4953 36.2073 19.8625 36.2708 20.3606 35.3319L21.9196 32.3922C21.965 32.3064 22.0654 32.2648 22.1583 32.2933L25.3393 33.2695C26.3561 33.5816 27.277 32.5687 26.87 31.5862L23.9644 24.5716C24.1965 24.2773 24.5205 24.0615 24.8935 23.9649C26.1568 23.6379 27.0174 22.4983 26.9863 21.1936C26.9725 20.6186 27.2432 20.075 27.7104 19.7395C28.7704 18.9781 29.1611 17.6045 28.6607 16.3992C28.4404 15.8678 28.4965 15.2631 28.8108 14.7816ZM10.9376 34.8201C10.8715 34.9799 10.6517 34.9897 10.571 34.8376L9.01198 31.8979C8.72995 31.3662 8.10762 31.1085 7.53225 31.285L4.35117 32.2612C4.18615 32.3117 4.03814 32.1492 4.10423 31.9896L6.68203 25.7661C7.26366 26.5628 8.23594 27.0068 9.25948 26.8873C9.8307 26.8207 10.3969 27.0399 10.7741 27.474C11.3214 28.104 12.0925 28.4384 12.8792 28.4384C13.1281 28.4384 13.3784 28.4036 13.6238 28.3354L10.9376 34.8201ZM25.6489 32.2612L22.4679 31.285C21.8925 31.1085 21.27 31.3662 20.9881 31.8979L19.4291 34.8375C19.3485 34.9894 19.1285 34.9796 19.0624 34.8201L16.3768 28.3366C17.3977 28.62 18.5057 28.3029 19.2259 27.4739C19.6031 27.0397 20.1691 26.8203 20.7406 26.8871C21.7651 27.0069 22.7368 26.5627 23.318 25.766L25.896 31.9894C25.9622 32.1495 25.8134 32.3115 25.6489 32.2612ZM27.9277 14.2051C27.4227 14.9788 27.3327 15.9501 27.687 16.8034C27.9985 17.5537 27.7553 18.4087 27.0954 18.8828C26.345 19.4218 25.9102 20.295 25.9323 21.2185C25.9517 22.0308 25.4159 22.7402 24.6294 22.9438C23.8937 23.1343 23.2759 23.6131 22.9054 24.2606C22.9045 24.2625 22.9034 24.2643 22.9024 24.2662C22.8239 24.4042 22.7558 24.5494 22.701 24.7017C22.4258 25.466 21.6704 25.9345 20.863 25.8398C19.9455 25.7325 19.0357 26.085 18.4298 26.7824C17.8971 27.3957 17.0232 27.559 16.3047 27.1797C16.0604 27.0506 15.8016 26.961 15.5374 26.9092C15.5352 26.9087 15.533 26.9082 15.5309 26.9078C15.1799 26.8398 14.8192 26.8399 14.4682 26.9081C14.4669 26.9084 14.4657 26.9086 14.4644 26.9089C14.1996 26.9607 13.9403 27.0504 13.6954 27.1797C12.977 27.5591 12.1031 27.3957 11.5704 26.7824C11.0361 26.1675 10.266 25.8209 9.46226 25.8209C9.3544 25.8209 9.24577 25.8272 9.13713 25.8399C8.33051 25.9343 7.5743 25.4662 7.29902 24.7017C7.24425 24.5497 7.17633 24.4046 7.09786 24.2667C7.09666 24.2644 7.09547 24.2623 7.09427 24.26C6.72373 23.6128 6.10617 23.1342 5.3707 22.9438C4.58419 22.7402 4.04848 22.0308 4.06788 21.2186C4.08996 20.295 3.65515 19.4218 2.90477 18.8828C2.24496 18.4088 2.00161 17.5537 2.31316 16.8033C2.6674 15.95 2.5774 14.9787 2.07241 14.2051C1.62839 13.5248 1.71037 12.6396 2.27196 12.0525C2.91047 11.3848 3.17745 10.4465 2.98605 9.54272C2.81773 8.74791 3.21401 7.95211 3.94969 7.60744C4.78634 7.21552 5.37415 6.43709 5.52223 5.52514C5.65238 4.72315 6.30938 4.12423 7.11987 4.06868C8.04159 4.00547 8.871 3.49198 9.33844 2.69499C9.74955 1.99425 10.5787 1.67321 11.3543 1.9141C12.2366 2.18811 13.1955 2.00888 13.9193 1.43464C14.5556 0.929653 15.4447 0.929653 16.0812 1.43464C16.8049 2.00881 17.7636 2.18818 18.6461 1.9141C19.422 1.67314 20.251 1.99432 20.662 2.69499C21.1294 3.49191 21.9588 4.0054 22.8806 4.06868C23.691 4.1243 24.348 4.72322 24.4782 5.52514C24.6263 6.43709 25.2142 7.21552 26.0507 7.60751C26.7865 7.95211 27.1827 8.74791 27.0144 9.54272C26.823 10.4465 27.0899 11.3848 27.7285 12.0525C28.2898 12.6396 28.3718 13.5248 27.9277 14.2051Z" fill="black"/>
<path d="M5.01217 13.5092C5.30094 13.5448 5.5644 13.3393 5.59991 13.0503C6.18224 8.31723 10.2235 4.7481 15 4.7481C19.7788 4.7481 23.8202 8.31913 24.4006 13.0547C24.4334 13.322 24.6608 13.518 24.9233 13.518C24.9448 13.518 24.9664 13.5166 24.9882 13.514C25.2772 13.4785 25.4828 13.2155 25.4474 12.9264C24.8023 7.66276 20.3108 3.69348 15 3.69348C9.69161 3.69348 5.20047 7.66065 4.55317 12.9215C4.51766 13.2106 4.72311 13.4737 5.01217 13.5092Z" fill="black"/>
<path d="M24.9882 14.9246C24.7 14.8894 24.4362 15.0948 24.4007 15.3839C23.8205 20.1197 19.7791 23.6909 15 23.6909C10.2231 23.6909 6.1819 20.1214 5.59979 15.388C5.56428 15.099 5.30131 14.8936 5.01204 14.929C4.72306 14.9645 4.51747 15.2277 4.55304 15.5167C5.20006 20.778 9.6912 24.7455 14.9999 24.7455C20.3111 24.7455 24.8025 20.776 25.4474 15.512C25.4829 15.223 25.2773 14.96 24.9882 14.9246Z" fill="black"/>
<path d="M22.446 12.0433C22.312 11.6308 21.9454 11.3542 21.5119 11.3387L17.3775 11.1904L15.9588 7.30406C15.8101 6.89667 15.4338 6.63342 15.0001 6.63342C14.5664 6.63342 14.1901 6.89667 14.0414 7.30406L12.6227 11.1904L8.48821 11.3387C8.05481 11.3542 7.68813 11.6308 7.55411 12.0433C7.4201 12.4557 7.55411 12.895 7.89562 13.1624L11.1533 15.7125L10.0167 19.6905C9.89756 20.1075 10.0473 20.5417 10.3983 20.7967C10.7488 21.0514 11.208 21.0601 11.568 20.8176L15 18.5074L18.432 20.8175C18.7917 21.0597 19.2509 21.0515 19.6018 20.7965C19.9527 20.5417 20.1024 20.1075 19.9833 19.6904L18.8467 15.7125L22.1044 13.1623C22.4459 12.895 22.58 12.4557 22.446 12.0433ZM18.1788 14.8961C17.85 15.1535 17.7117 15.5791 17.8265 15.9803L18.9438 19.8907L15.57 17.6198C15.3968 17.5032 15.1984 17.445 15 17.445C14.8016 17.445 14.6032 17.5032 14.43 17.6198L11.0562 19.8906L12.1735 15.9803C12.2882 15.5789 12.1499 15.1535 11.8213 14.8961L8.61886 12.3892L12.6833 12.2434C13.1004 12.2284 13.4623 11.9654 13.6054 11.5734L15.0001 7.75301L16.3947 11.5734C16.5379 11.9654 16.8998 12.2284 17.3169 12.2433L21.3811 12.3891L18.1788 14.8961Z" fill="black"/>
</svg>
