<svg width="11" height="10" viewBox="0 0 11 10" fill="none" xmlns="http://www.w3.org/2000/svg">
<g clip-path="url(#clip0)">
<path d="M8.99456 4.01852C8.99456 6.83148 5.3779 9.2426 5.3779 9.2426C5.3779 9.2426 1.76123 6.83148 1.76123 4.01852C1.76123 3.05932 2.14227 2.13941 2.82053 1.46115C3.49878 0.782896 4.4187 0.401855 5.3779 0.401855C6.3371 0.401855 7.25701 0.782896 7.93527 1.46115C8.61352 2.13941 8.99456 3.05932 8.99456 4.01852Z" stroke="#414552" stroke-width="0.503212" stroke-linecap="round" stroke-linejoin="round"/>
<path d="M5.37792 5.2241C6.04373 5.2241 6.58347 4.68435 6.58347 4.01854C6.58347 3.35273 6.04373 2.81299 5.37792 2.81299C4.71211 2.81299 4.17236 3.35273 4.17236 4.01854C4.17236 4.68435 4.71211 5.2241 5.37792 5.2241Z" stroke="#414552" stroke-width="0.503212" stroke-linecap="round" stroke-linejoin="round"/>
</g>
<defs>
<clipPath id="clip0">
<rect width="9.64444" height="9.64444" fill="white" transform="translate(0.555664)"/>
</clipPath>
</defs>
</svg>
