<svg width="604" height="412" viewBox="0 0 604 412" fill="none" xmlns="http://www.w3.org/2000/svg">
<path d="M320.204 271.801H311.972V281.172H320.204V271.801Z" fill="#EDEDEE"/>
<path d="M282.971 271.801H267.217V281.172H282.971V271.801Z" fill="#EDEDEE"/>
<path d="M341.627 271.801H333.368V281.172H341.627V271.801Z" fill="#EDEDEE"/>
<path d="M489.382 175.387V222.626C491.371 222.844 493.334 223.089 495.269 223.307C498.567 223.716 501.729 224.206 504.781 224.697C507.071 225.078 509.306 225.432 511.459 225.841V170.047H494.751C492.625 172.145 491.453 173.289 489.382 175.387Z" fill="#EDEDEE"/>
<path d="M603.966 296.074L603.938 147.027V120.329H577.227H504.127L384.255 0.541016H213.85L93.9784 120.356H27.3374H0.626587V147.055V295.366V342.306C31.3986 323.072 70.8925 302.885 87.9548 296.211L95.3958 293.296L213.85 411.694H384.255L503.146 292.86C526.068 302.231 564.717 320.784 603.938 341.979L603.966 296.074ZM228.187 35.1125H369.918L455.202 120.356H452.068H441.002H438.004H411.293H379.131L347.65 88.8905H250.482L219.002 120.356H206.3H142.93L228.187 35.1125ZM340.673 234.042C328.189 233.306 315.515 232.925 302.705 232.843C295.237 213.501 281.173 176.559 281.173 176.559V233.061C263.702 233.497 246.558 234.614 229.795 236.276V147.027H305.921C308.183 152.231 310.555 158.388 312.98 165.471C315.815 172.854 318.65 180.237 321.512 187.674C325.982 174.216 330.397 160.676 334.785 147.027H411.32V241.888C394.776 239.136 377.714 236.984 360.27 235.459V176.259C360.242 176.286 347.514 214.372 340.673 234.042ZM304.204 289.291C302.623 287.711 301.724 286.812 300.116 285.204V267.878C301.696 266.298 302.596 265.399 304.204 263.791H320.203H333.395H349.395C350.975 265.371 351.875 266.27 353.483 267.878V285.204C351.902 286.785 351.003 287.684 349.395 289.291H333.395V294.958H320.203V289.291H304.204ZM296.055 267.878V285.204C294.474 286.785 293.574 287.684 291.966 289.291H267.19V294.958H253.999V263.791H291.966C293.574 265.399 294.474 266.298 296.055 267.878ZM78.2516 191.161V271.392C59.9356 278.557 42.9007 286.594 27.3647 295.393V147.082H103.491C105.617 154.328 107.797 162.719 109.978 172.2C112.567 182.035 115.156 191.624 117.718 200.996C122.57 182.362 127.449 164.408 132.328 147.082H206.3V239.082C189.238 241.398 172.639 244.367 156.613 247.909V181.027C156.613 181.027 143.012 226.441 135.653 252.921C122.352 256.381 109.514 260.223 97.1673 264.472C90.6259 240.39 78.2516 191.161 78.2516 191.161ZM420.042 327.05L369.918 377.15H228.187L132.409 281.418C135.68 280.491 139.005 279.592 142.331 278.721L152.17 276.16L162.337 273.926C172.966 271.583 183.869 269.54 194.853 267.769L250.482 323.372H347.65L403.361 267.687C404.533 267.878 405.733 268.041 406.877 268.232L417.453 270.003L428.137 272.182C441.002 274.798 453.621 277.876 465.832 281.281L420.042 327.05ZM511.431 267.442V248.29C509.687 247.8 507.915 247.337 506.117 246.901C500.747 245.566 495.187 244.476 489.381 243.659V260.413C471.638 254.828 452.967 250.006 433.507 246.029V165.607C434.406 164.708 435.278 163.836 436.096 163.019C436.914 162.202 437.704 161.412 438.467 160.649C439.23 159.886 439.966 159.151 440.675 158.442C441.029 158.088 441.384 157.734 441.738 157.38C442.447 156.671 443.155 155.963 443.864 155.255C446.344 152.776 448.906 150.215 452.095 147.027H577.255L577.282 296.074C555.832 286.076 534.708 276.923 511.431 267.442Z" fill="#F3F3F3"/>
</svg>
