<svg width="105" height="44" viewBox="0 0 105 44" fill="none" xmlns="http://www.w3.org/2000/svg">
<path d="M37.3021 41.2679V42.9505H38.3832L38.8325 41.9673L37.3021 41.2679ZM55.1482 2.21646L56.6786 2.91583L57.7671 0.533864H55.1482V2.21646ZM41.8161 2.21646V0.533864H40.7197L40.2769 1.53687L41.8161 2.21646ZM29.5338 30.0354L27.9946 30.715L29.5338 34.2013L31.0731 30.715L29.5338 30.0354ZM17.2515 2.21646L18.7908 1.53687L18.3479 0.533864H17.2515V2.21646ZM2.71217 2.21646V0.533864H0.0449946L1.19359 2.94106L2.71217 2.21646ZM21.3456 41.2679L19.827 41.9925L20.2841 42.9505H21.3456V41.2679ZM38.8325 41.9673L56.6786 2.91583L53.6179 1.5171L35.7718 40.5686L38.8325 41.9673ZM55.1482 0.533864H41.8161V3.89906H55.1482V0.533864ZM40.2769 1.53687L27.9946 29.3558L31.0731 30.715L43.3554 2.89606L40.2769 1.53687ZM31.0731 29.3558L18.7908 1.53687L15.7123 2.89606L27.9946 30.715L31.0731 29.3558ZM17.2515 0.533864H2.71217V3.89906H17.2515V0.533864ZM1.19359 2.94106L19.827 41.9925L22.8642 40.5434L4.23076 1.49187L1.19359 2.94106ZM21.3456 42.9505H37.3021V39.5853H21.3456V42.9505ZM84.4295 16.7033L84.478 15.0214L84.4775 15.0214L84.4295 16.7033ZM78.9182 16.5458L78.9662 14.8639L78.9628 14.8638L78.9182 16.5458ZM88.4186 13.9739L86.7575 14.2418L86.9856 15.6565H88.4186V13.9739ZM101.751 13.9739V15.6565H103.433V13.9739H101.751ZM76.1888 25.5214L76.137 27.2032L76.1393 27.2033L76.1888 25.5214ZM81.5426 25.6788L81.4931 27.3607L81.5016 27.3609L81.5426 25.6788ZM71.6747 28.3033L73.3495 28.1412L73.2024 26.6207H71.6747V28.3033ZM58.1327 28.3033V26.6207H56.4501V28.3033H58.1327ZM81.2277 43.6329C90.6146 43.6329 96.3971 41.8712 99.8377 38.9965C103.366 36.0483 104.116 32.2063 104.116 28.9331H100.75C100.75 31.6962 100.135 34.3628 97.68 36.4141C95.1369 38.5389 90.3167 40.2677 81.2277 40.2677V43.6329ZM104.116 28.9331V28.3033H100.75V28.9331H104.116ZM104.116 28.3033C104.116 24.6796 103.146 21.284 99.8957 18.8366C96.7847 16.4938 91.8459 15.2342 84.478 15.0214L84.3809 18.3852C91.5524 18.5923 95.6153 19.8259 97.8713 21.5248C99.9882 23.1189 100.75 25.3133 100.75 28.3033H104.116ZM84.4775 15.0214L78.9662 14.8639L78.8701 18.2278L84.3814 18.3852L84.4775 15.0214ZM78.9628 14.8638C76.0574 14.7867 74.5907 14.397 73.8925 14.0072C73.581 13.8333 73.48 13.6908 73.4415 13.6219C73.4 13.5474 73.3573 13.4248 73.3573 13.1866H69.9921C69.9921 13.8407 70.1135 14.5644 70.5034 15.2625C70.8963 15.9662 71.4941 16.5224 72.2521 16.9455C73.6927 17.7498 75.8477 18.1475 78.8735 18.2278L78.9628 14.8638ZM73.3573 13.1866C73.3573 12.9157 73.4056 12.804 73.4368 12.7517C73.4642 12.7058 73.5605 12.566 73.919 12.3937C74.7272 12.0054 76.4032 11.6674 79.7055 11.6674V8.30217C76.3418 8.30217 74.0024 8.6202 72.4617 9.36044C71.6458 9.75244 70.9842 10.295 70.5474 11.0266C70.1145 11.7517 69.9921 12.5127 69.9921 13.1866H73.3573ZM79.7055 11.6674H80.1779V8.30217H79.7055V11.6674ZM80.1779 11.6674C83.529 11.6674 85.1196 12.2436 85.8644 12.7557C86.5022 13.1941 86.6676 13.6847 86.7575 14.2418L90.0797 13.706C89.9071 12.6359 89.4427 11.1319 87.7709 9.98262C86.2063 8.90693 83.8077 8.30217 80.1779 8.30217V11.6674ZM88.4186 15.6565H101.751V12.2913H88.4186V15.6565ZM103.433 13.9739V13.554H100.068V13.9739H103.433ZM103.433 13.554C103.433 10.5294 102.674 6.96715 99.1903 4.24917C95.8218 1.62083 90.1787 0.00897884 81.0177 0.00897884V3.37418C89.9128 3.37418 94.6362 4.96412 97.1201 6.90229C99.4892 8.75082 100.068 11.1197 100.068 13.554H103.433ZM81.0177 0.00897884H79.0231V3.37418H81.0177V0.00897884ZM79.0231 0.00897884C70.5967 0.00897884 65.0636 1.32454 61.609 3.745C58.0064 6.26919 56.9225 9.798 56.9225 13.3965H60.2877C60.2877 10.539 61.0934 8.21529 63.5401 6.50103C66.1348 4.68304 70.8107 3.37418 79.0231 3.37418V0.00897884ZM56.9225 13.3965V13.8689H60.2877V13.3965H56.9225ZM56.9225 13.8689C56.9225 17.2895 58.062 20.6364 61.242 23.1261C64.3369 25.5492 69.1512 26.9882 76.137 27.2032L76.2405 23.8396C69.5793 23.6346 65.6018 22.2655 63.3166 20.4764C61.1165 18.7539 60.2877 16.4845 60.2877 13.8689H56.9225ZM76.1393 27.2033L81.4931 27.3607L81.5921 23.997L76.2382 23.8395L76.1393 27.2033ZM81.5016 27.3609C84.6953 27.4388 86.2442 27.8351 86.9642 28.2441C87.2729 28.4195 87.3707 28.5653 87.415 28.6527C87.4697 28.761 87.5233 28.9463 87.5233 29.3006H90.8885C90.8885 28.6313 90.7912 27.8718 90.4179 27.1337C90.034 26.3748 89.4265 25.7726 88.6264 25.3181C87.1287 24.4674 84.8459 24.0763 81.5836 23.9967L81.5016 27.3609ZM87.5233 29.3006C87.5233 29.6491 87.4772 29.8894 87.3952 30.0725C87.3232 30.2336 87.1845 30.4404 86.8387 30.6653C86.0625 31.17 84.3242 31.7121 80.5978 31.7121V35.0773C84.4822 35.0773 87.048 34.5433 88.6732 33.4865C89.528 32.9306 90.1143 32.2353 90.4671 31.4466C90.81 30.6801 90.8885 29.9231 90.8885 29.3006H87.5233ZM80.5978 31.7121H80.2829V35.0773H80.5978V31.7121ZM80.2829 31.7121C76.6127 31.7121 74.9901 30.8895 74.2646 30.2214C73.5649 29.5771 73.4153 28.8213 73.3495 28.1412L70 28.4653C70.0916 29.4124 70.362 31.2023 71.9849 32.6969C73.582 34.1677 76.1847 35.0773 80.2829 35.0773V31.7121ZM71.6747 26.6207H58.1327V29.9859H71.6747V26.6207ZM56.4501 28.3033V28.7757H59.8153V28.3033H56.4501ZM56.4501 28.7757C56.4501 31.5043 57.0307 35.3628 60.5052 38.4845C63.9236 41.5558 69.8382 43.6329 79.8105 43.6329V40.2677C70.2045 40.2677 65.2802 38.2507 62.7543 35.9813C60.2844 33.7622 59.8153 31.0334 59.8153 28.7757H56.4501ZM79.8105 43.6329H81.2277V40.2677H79.8105V43.6329Z" fill="white" fill-opacity="0.9"/>
</svg>
