<svg width="186" height="23" viewBox="0 0 186 23" fill="none" xmlns="http://www.w3.org/2000/svg">
<path d="M46.2931 15.9844C46.6295 16.4492 46.5386 19.8125 46.2931 20.4596C45.0928 21.1979 43.056 22 40.1916 22C33.199 22 28.8798 17.2695 28.8798 11.5C28.8798 5.73047 33.199 1 40.1916 1C43.056 1 45.0928 1.80208 46.2931 2.54036C46.5386 3.1875 46.6295 6.5599 46.2931 7.01562C44.138 5.6849 42.2558 5.10156 40.4644 5.10156C36.8635 5.10156 33.8992 7.50781 33.8992 11.5C33.8992 15.4922 36.8544 17.8984 40.4644 17.8984C42.2558 17.8984 44.138 17.306 46.2931 15.9844Z" fill="white"/>
<path d="M68.7622 21.5443C67.3437 21.7904 65.2523 21.7904 63.8338 21.5443V9.76822L54.4951 21.5443C53.0766 21.7904 52.0582 21.7904 50.6396 21.5443V1.46483C52.0582 1.21874 54.1496 1.21874 55.5681 1.46483V13.2318L64.9067 1.46483C66.3253 1.21874 67.3437 1.21874 68.7622 1.46483V21.5443Z" fill="white"/>
<path d="M86.2029 1.46483C87.6214 1.21874 89.7128 1.21874 91.1313 1.46483V21.5443C89.7128 21.7904 87.6214 21.7904 86.2029 21.5443V13.4505H77.9099V21.5443C76.4914 21.7904 74.4 21.7904 72.9814 21.5443V1.46483C74.4 1.21874 76.4914 1.21874 77.9099 1.46483V9.33983H86.2029V1.46483Z" fill="white"/>
<path d="M109.418 17.4336C109.663 18.8555 109.663 20.1224 109.418 21.5443H95.4597V1.46486H109.418C109.663 2.88674 109.663 4.15367 109.418 5.57554H100.388V9.33986H108.372C108.617 10.7617 108.617 12.0287 108.372 13.4505H100.388V17.4336H109.418Z" fill="white"/>
<path d="M120.693 1.46486C125.158 1.46486 128.24 4.15367 128.24 8.20054C128.24 12.2474 125.158 14.9362 120.693 14.9362H117.765V21.5443C116.347 21.7904 114.255 21.7904 112.837 21.5443V1.46486H120.693ZM120.693 10.8255C122.048 10.8255 123.221 10.0235 123.221 8.20054C123.221 6.37762 122.048 5.57554 120.693 5.57554H117.765V10.8255H120.693Z" fill="white"/>
<path d="M144.981 1.46486C145.226 2.88674 145.226 4.15367 144.981 5.57554H136.724V21.5443C135.306 21.7904 133.214 21.7904 131.796 21.5443V1.46486H144.981Z" fill="white"/>
<path d="M166.341 21.5443C164.922 21.7904 162.831 21.7904 161.412 21.5443V9.76822L152.074 21.5351C150.655 21.7812 149.637 21.7812 148.218 21.5351V1.46483C149.637 1.21874 151.728 1.21874 153.146 1.46483V13.2318L162.485 1.46483C163.904 1.21874 164.922 1.21874 166.341 1.46483V21.5443Z" fill="white"/>
<path d="M186 21.5443C184.581 21.7904 182.49 21.7904 181.071 21.5443V14.7448H179.162L174.752 21.5443C173.333 21.7904 170.805 21.7904 169.387 21.5443L174.252 14.0065C171.878 12.9584 170.433 10.8255 170.433 8.1094C170.433 4.15367 173.424 1.46486 177.889 1.46486H185.991V21.5443H186ZM177.989 5.57554C176.634 5.57554 175.461 6.37762 175.461 8.1094C175.461 9.84117 176.634 10.6432 177.989 10.6432H181.071V5.57554H177.989Z" fill="white"/>
<path d="M0 0.512695V22.4431H21.8788V0.512695H0ZM3.38912 19.0557V3.90981H18.4994V19.0557H3.38912Z" fill="#F8006B"/>
<path d="M13.2263 18.5106V13.7118L11.0122 11.4828L13.236 9.24397V4.44517L6.21502 11.4828L13.2263 18.5106Z" fill="#F8006B"/>
</svg>
