<svg width="184" height="127" viewBox="0 0 184 127" fill="none" xmlns="http://www.w3.org/2000/svg">
<g filter="url(#filter0_d)">
<path d="M131.895 46.356C132.117 46.1352 132.33 45.9223 132.535 45.7173C132.33 45.9223 132.117 46.1352 131.895 46.356Z" fill="#0048FF"/>
<path d="M112.028 109.01L126.559 94.5093L112.028 109.01Z" fill="#0048FF"/>
<path d="M82.2396 83.5805H89.4258C89.8843 83.1232 90.1452 82.863 90.6117 82.3978V77.3829C90.1531 76.9256 89.8922 76.6654 89.4258 76.2002H78.4132V85.2206H82.2396V83.5805ZM82.2396 78.5184H86.809V81.2308H82.2396V78.5184Z" fill="white"/>
<path d="M92.9598 83.5805H97.6004V85.2206H101.427V83.5805H106.067C106.526 83.1232 106.787 82.863 107.253 82.3978V77.3829C106.795 76.9256 106.534 76.6654 106.067 76.2002H101.427H97.6004H92.9598C92.5012 76.6575 92.2404 76.9177 91.7739 77.3829V82.3978C92.2404 82.863 92.4933 83.1232 92.9598 83.5805ZM101.427 78.5184H103.822V81.2308H101.427V78.5184ZM95.2129 78.5184H97.6004V81.2308H95.2129V78.5184Z" fill="white"/>
<path d="M135.848 42.4131C134.931 43.3277 134.188 44.0689 133.461 44.7943C133.255 44.9994 133.049 45.2044 132.844 45.4094C132.741 45.5119 132.638 45.6144 132.536 45.7169C132.33 45.9219 132.117 46.1348 131.895 46.3556C131.674 46.5764 131.453 46.7971 131.207 47.0416C130.97 47.2781 130.717 47.5304 130.456 47.7906V71.0671C136.101 72.2183 141.516 73.6139 146.663 75.2303V70.3811C148.347 70.6176 149.952 70.933 151.517 71.3194C152.039 71.4456 152.553 71.5796 153.059 71.7215V77.2647C159.81 80.0165 165.937 82.658 172.151 85.5597L172.143 42.421H135.848V42.4131ZM153.067 65.2164C152.442 65.0981 151.794 64.9878 151.13 64.8853C150.244 64.7433 149.327 64.6093 148.371 64.4831C147.817 64.4122 147.248 64.3491 146.663 64.286V50.6135C147.264 50.0142 147.604 49.6751 148.213 49.068H153.059V65.2164H153.067Z" fill="white"/>
<path d="M124.021 69.8686V42.4131H101.822C100.557 46.3713 99.2684 50.2823 97.9718 54.1775C97.1417 52.0249 96.3196 49.888 95.4974 47.7512C94.7938 45.7011 94.106 43.9191 93.4498 42.4131H71.3693V68.2443C76.2313 67.7554 81.2039 67.44 86.2714 67.3138V50.9604C86.2714 50.9604 90.3508 61.6524 92.5169 67.2507C96.2405 67.2665 99.9087 67.3848 103.53 67.5977C105.522 61.9047 109.214 50.8815 109.214 50.8815V68.0156C114.281 68.4414 119.222 69.0643 124.021 69.8686Z" fill="white"/>
<path d="M43.1066 42.4132C41.6915 47.428 40.2764 52.6242 38.8692 58.0175C38.1181 55.3051 37.375 52.5296 36.624 49.6831C35.9836 46.9391 35.3511 44.5106 34.7424 42.4132H12.6619V85.339C17.1681 82.7921 22.1091 80.466 27.4218 78.3923V55.171C27.4218 55.171 31.0109 69.4192 32.9004 76.3816C36.4817 75.1595 40.2052 74.0398 44.0632 73.0384C46.2056 65.3663 50.1427 52.2299 50.1427 52.2299V71.5876C54.7912 70.5704 59.6058 69.7109 64.5547 69.0328V42.4053H43.1066V42.4132Z" fill="white"/>
<path d="M97.6003 78.5186H95.2128V81.231H97.6003V78.5186Z" fill="black"/>
<path d="M86.809 78.5186H82.2395V81.231H86.809V78.5186Z" fill="black"/>
<path d="M103.822 78.5186H101.427V81.231H103.822V78.5186Z" fill="black"/>
<path d="M146.671 50.6138V64.2864C147.248 64.3494 147.817 64.4204 148.378 64.4835C149.335 64.6018 150.252 64.7437 151.137 64.8856C151.802 64.996 152.45 65.0985 153.074 65.2168V49.0684H148.228C147.612 49.6755 147.272 50.0067 146.671 50.6138Z" fill="black"/>
<path d="M179.906 85.5441L179.898 42.4054V34.6781H172.151H150.948L116.179 0H66.7524L31.9832 34.6781H12.6539H4.90631V42.4054V85.3312V98.917C13.8318 93.3502 25.2871 87.5074 30.2361 85.5756L32.3943 84.7319L66.7524 119H116.179L150.663 84.6058C157.312 87.3182 168.522 92.6878 179.898 98.8224L179.906 85.5441ZM92.9597 83.5807C92.5012 83.1234 92.2403 82.8632 91.7738 82.398V77.3831C92.2324 76.9258 92.4933 76.6656 92.9597 76.2004H97.6003H101.427H106.067C106.526 76.6577 106.787 76.9179 107.253 77.3831V82.398C106.795 82.8553 106.534 83.1155 106.067 83.5807H101.427V85.2208H97.6003V83.5807H92.9597ZM78.4054 76.2083H89.418C89.8765 76.6656 90.1374 76.9258 90.6038 77.391V82.4059C90.1453 82.8632 89.8844 83.1234 89.418 83.5886H82.2317V85.2287H78.4054V76.2083ZM103.537 67.59C99.9167 67.3771 96.2406 67.2667 92.5249 67.243C90.3587 61.6447 86.2794 50.9527 86.2794 50.9527V67.3061C81.2119 67.4323 76.2392 67.7556 71.3772 68.2366V42.4054H93.4578C94.1139 43.9114 94.8017 45.6934 95.5053 47.7435C96.3275 49.8803 97.1497 52.0172 97.9798 54.1698C99.2763 50.2746 100.557 46.3558 101.83 42.4054H124.029V69.8609C119.23 69.0645 114.281 68.4416 109.222 68V50.866C109.214 50.8738 105.522 61.897 103.537 67.59ZM27.4217 55.179V78.4003C22.1091 80.474 17.168 82.8001 12.6618 85.3469V42.4211H34.7423C35.359 44.5186 35.9914 46.9471 36.6239 49.6911C37.3749 52.5376 38.1259 55.3131 38.8691 58.0255C40.2763 52.6322 41.6914 47.436 43.1065 42.4211H64.5625V69.0487C59.6136 69.7189 54.799 70.5784 50.1505 71.6034V52.2458C50.1505 52.2458 46.2055 65.3901 44.071 73.0543C40.213 74.0557 36.4895 75.1674 32.9082 76.3975C31.0108 69.4272 27.4217 55.179 27.4217 55.179ZM153.067 77.257V71.7138C152.561 71.5719 152.047 71.4378 151.525 71.3117C149.968 70.9253 148.355 70.6099 146.671 70.3734V75.2226C141.524 73.6062 136.109 72.2106 130.464 71.0594V47.7829C130.725 47.5227 130.978 47.2704 131.215 47.0339C131.452 46.7973 131.682 46.5686 131.903 46.3479C132.124 46.1271 132.338 45.9142 132.543 45.7092C132.646 45.6067 132.749 45.5042 132.852 45.4017C133.057 45.1967 133.263 44.9917 133.468 44.7866C134.188 44.0691 134.931 43.3279 135.856 42.4054H172.159L172.167 85.5441C165.945 82.6503 159.818 80.0009 153.067 77.257Z" fill="black"/>
<path d="M70.9187 10.0137L46.1818 34.6858H64.5625H68.2466L77.3776 25.5786H105.561L114.692 34.6858H124.021H131.769H132.638H135.848H136.765L112.028 10.0137H70.9187Z" fill="#0048FF"/>
<path d="M112.028 109.01L126.567 94.5095L139.848 81.2627C136.299 80.2771 132.638 79.3861 128.915 78.6291L125.816 77.9983L122.748 77.4858C122.408 77.4306 122.068 77.3833 121.728 77.3281L105.569 93.445H77.3854L61.25 77.3518C58.064 77.8643 54.9096 78.4636 51.8185 79.1338L48.8697 79.7804L46.0157 80.5215C45.0512 80.7739 44.0946 81.0341 43.1381 81.3021L70.9186 109.01H112.028Z" fill="#E20613"/>
</g>
<defs>
<filter id="filter0_d" x="0.906311" y="0" width="183" height="127" filterUnits="userSpaceOnUse" color-interpolation-filters="sRGB">
<feFlood flood-opacity="0" result="BackgroundImageFix"/>
<feColorMatrix in="SourceAlpha" type="matrix" values="0 0 0 0 0 0 0 0 0 0 0 0 0 0 0 0 0 0 127 0"/>
<feOffset dy="4"/>
<feGaussianBlur stdDeviation="2"/>
<feColorMatrix type="matrix" values="0 0 0 0 0 0 0 0 0 0 0 0 0 0 0 0 0 0 0.25 0"/>
<feBlend mode="normal" in2="BackgroundImageFix" result="effect1_dropShadow"/>
<feBlend mode="normal" in="SourceGraphic" in2="effect1_dropShadow" result="shape"/>
</filter>
</defs>
</svg>
