<svg width="26" height="19" viewBox="0 0 26 19" fill="none" xmlns="http://www.w3.org/2000/svg">
<path d="M24.846 3.31178C24.7037 2.76731 24.4247 2.27078 24.0369 1.87189C23.6491 1.473 23.1661 1.18573 22.6362 1.03885C20.6859 0.5 12.8678 0.5 12.8678 0.5C12.8678 0.5 5.04972 0.5 3.09938 1.03599C2.56931 1.18239 2.08606 1.46949 1.69817 1.86846C1.31028 2.26742 1.03141 2.76421 0.889561 3.30892C0.367798 5.31529 0.367798 9.5 0.367798 9.5C0.367798 9.5 0.367798 13.6847 0.889561 15.6882C1.17695 16.7946 2.02516 17.6659 3.09938 17.9611C5.04972 18.5 12.8678 18.5 12.8678 18.5C12.8678 18.5 20.6859 18.5 22.6362 17.9611C23.7132 17.6659 24.5586 16.7946 24.846 15.6882C25.3678 13.6847 25.3678 9.5 25.3678 9.5C25.3678 9.5 25.3678 5.31529 24.846 3.31178ZM10.3845 13.3408V5.65924L16.8578 9.47134L10.3845 13.3408Z" fill="white"/>
</svg>
