<svg width="42" height="31" viewBox="0 0 42 31" fill="none" xmlns="http://www.w3.org/2000/svg">
<path d="M2.55818 5.88801L4.71115 4.27328H6.32588L7.94061 4.81153L9.01709 5.34977L10.6318 3.1968L12.2466 2.12031H14.9378L16.5525 3.1968L17.629 4.27328L19.2437 2.12031L21.9349 1.04382H24.0879L25.7026 2.12031L26.2409 3.1968L27.3174 4.27328L28.9321 2.12031L30.5468 1.58207L32.6998 2.12031L34.3145 3.1968L35.391 5.34977L35.9293 8.04098L36.4675 12.3469C37.0057 12.7058 38.0822 13.6387 38.0822 14.4999C38.0822 15.3611 39.1587 17.3705 39.697 18.2676L40.2352 20.4206V22.5736L38.6205 25.803L36.4675 27.4177L31.6233 29.0325L29.4703 29.5707L27.3174 29.0325L26.2409 27.4177L26.7791 25.2648L29.4703 24.1883L26.7791 22.0353L26.2409 24.1883L25.1644 25.803L23.0114 26.3413L20.3202 25.803L18.7055 24.1883L17.629 22.5736L16.5525 24.1883L14.9378 24.7265L12.2466 24.1883L10.6318 23.1118L9.55534 21.4971L8.47885 22.5736L5.78763 23.65L3.09642 23.1118L2.01993 20.4206L1.48169 16.6529V12.3469L2.55818 5.88801Z" fill="#E20613"/>
<path d="M1.65562 6.24325C1.22003 7.94878 0.816391 12.9381 0.771637 13.5007C0.570304 16.0427 0.590791 18.3517 1.34576 21.3585C1.55126 22.1964 1.99909 22.9552 2.63332 23.5401C3.26754 24.125 4.06004 24.51 4.91182 24.6471C5.76359 24.7842 6.63688 24.6673 7.4226 24.311C8.20831 23.9546 8.87162 23.3747 9.32966 22.6436C9.83018 23.4898 10.5405 24.1926 11.392 24.684C12.2017 25.1606 13.1231 25.4142 14.0626 25.419C14.8596 25.4206 15.6448 25.227 16.3497 24.8552C16.7249 24.6581 17.0733 24.4136 17.3863 24.1277C17.4988 24.0226 17.6047 23.9106 17.7033 23.7925C18.1417 24.964 18.9718 25.9477 20.053 26.5768C20.8171 27.0285 21.6876 27.2688 22.5752 27.273C23.8164 27.2621 25.0101 26.7947 25.9287 25.9598C25.9309 25.9578 25.9328 25.9556 25.9349 25.9537C25.8167 26.5057 25.8237 27.0771 25.9555 27.626C26.0873 28.1749 26.3405 28.6872 26.6964 29.1253C27.0524 29.5634 27.5021 29.9161 28.0123 30.1575C28.5226 30.3989 29.0805 30.5228 29.645 30.5201C30.0724 30.5201 30.4966 30.4468 30.8992 30.3033L37.1988 27.9241C37.8691 27.6115 38.4705 27.1686 38.968 26.6213C39.4656 26.074 39.8492 25.4332 40.0967 24.7362L41.0113 22.1786C41.4532 21.0182 41.0288 19.9348 40.6545 18.978L37.0418 10.4854C36.8921 8.71445 36.6122 6.95695 36.2047 5.22707C35.6271 2.7406 33.8427 1.04909 31.6588 0.917756C30.8373 0.867821 30.0167 1.02728 29.2737 1.3812C28.5308 1.73511 27.8899 2.27189 27.411 2.9412C26.3379 1.04178 24.2292 -0.0839055 22.1381 0.173034C20.3577 0.392536 18.8142 1.5498 18.0241 3.23033C16.5462 1.46895 14.1592 0.701547 12.0762 1.35883C10.5651 1.83576 9.32515 3.0173 8.69347 4.56149C7.71157 3.51788 6.31834 3.01583 4.96572 3.24119C4.18489 3.37322 3.45821 3.72611 2.87162 4.25811C2.28502 4.79012 1.86306 5.47899 1.65562 6.24325ZM27.2284 23.8192C27.2813 23.6701 27.3323 23.5173 27.3799 23.3567C27.4314 23.4272 27.4845 23.4963 27.5393 23.5641L27.2351 23.8128C27.2328 23.8151 27.2307 23.8172 27.2284 23.8192ZM37.1582 15.2542C37.1662 15.0089 37.1715 14.7684 37.1752 14.5307L39.2914 19.5119C39.6595 20.4524 39.8734 21.0594 39.6416 21.6625C39.6396 21.6679 39.6376 21.6732 39.6357 21.6785L38.7172 24.2457C38.5355 24.7593 38.2535 25.2315 37.8875 25.6349C37.5215 26.0384 37.0788 26.3649 36.5854 26.5956L30.408 28.9248C29.8935 29.1077 29.3309 29.1032 28.8194 28.912C28.3079 28.7209 27.8802 28.3553 27.6118 27.8798C27.3433 27.4043 27.2513 26.8492 27.352 26.3125C27.4526 25.7758 27.7394 25.2918 28.1619 24.9458L28.6188 24.5721C28.7322 24.6517 28.8481 24.7288 28.9688 24.8002C29.7671 25.2756 30.6788 25.5273 31.6079 25.5288C32.408 25.5286 33.1968 25.34 33.9104 24.9781C34.2839 24.7908 34.6322 24.5569 34.9469 24.2821C36.7706 22.6782 37.0335 19.0964 37.1582 15.2542ZM5.2057 4.68466C6.16212 4.52503 7.16269 4.94733 7.81741 5.78607C7.95367 5.96045 8.13481 6.09446 8.34142 6.17375C8.54802 6.25303 8.77231 6.2746 8.99024 6.23615C9.20817 6.19769 9.41153 6.10065 9.57852 5.95544C9.74551 5.81022 9.86983 5.6223 9.93817 5.41182C10.3634 4.1231 11.327 3.12961 12.5161 2.75438C14.1237 2.24709 15.994 2.92132 17.0786 4.39467C17.1893 4.55158 17.3344 4.68113 17.5028 4.77343C17.6712 4.86572 17.8584 4.91832 18.0502 4.92721C18.3033 4.93361 18.5521 4.86144 18.7624 4.72063C18.9728 4.57982 19.1343 4.37729 19.2248 4.1409C19.7474 2.77962 20.9608 1.79223 22.316 1.62541C23.9196 1.42798 25.5476 2.37842 26.2779 3.9364C26.3717 4.13784 26.5187 4.30986 26.703 4.43392C26.8874 4.55799 27.1021 4.62939 27.324 4.64043C27.5459 4.65147 27.7666 4.60174 27.9624 4.49658C28.1581 4.39143 28.3215 4.23485 28.4348 4.04371C28.754 3.50492 29.2156 3.06448 29.7687 2.77074C30.3218 2.477 30.9452 2.3413 31.5704 2.37854C33.4171 2.48951 34.4385 4.09383 34.7786 5.55828C35.242 7.55209 35.8409 10.7216 35.6955 15.2067C35.6148 17.697 35.4797 21.865 33.9801 23.1831C33.7583 23.3763 33.5129 23.5407 33.2498 23.6722C32.6986 23.9551 32.084 24.0916 31.4649 24.0686C30.8458 24.0456 30.243 23.8639 29.7144 23.5409C29.1579 23.2143 28.6933 22.752 28.3639 22.1973C28.0344 21.6426 27.8508 21.0134 27.8303 20.3686L27.5976 13.3622C27.5912 13.1682 27.5079 12.9848 27.3662 12.8522C27.2245 12.7197 27.0359 12.6488 26.8419 12.6553C26.648 12.6617 26.4645 12.745 26.332 12.8867C26.1994 13.0284 26.1285 13.217 26.135 13.411L26.3838 20.4066C26.3949 20.6986 26.3785 20.991 26.335 21.2799C26.0618 23.0688 25.5927 24.2798 24.9373 24.8824C24.3818 25.3875 23.6793 25.7017 22.9326 25.7789C22.1858 25.8561 21.4339 25.6924 20.7868 25.3117C20.1925 24.9611 19.6977 24.4643 19.3498 23.8684C19.0019 23.2725 18.8123 22.5974 18.7991 21.9075L18.5673 14.5853C18.5642 14.4893 18.5423 14.3948 18.5027 14.3072C18.4632 14.2197 18.4067 14.1407 18.3367 14.075C18.2666 14.0092 18.1843 13.9579 18.0944 13.924C18.0045 13.8901 17.9088 13.8742 17.8128 13.8772C17.7167 13.8803 17.6222 13.9022 17.5347 13.9418C17.4471 13.9814 17.3682 14.0378 17.3024 14.1079C17.2367 14.1779 17.1854 14.2602 17.1515 14.3501C17.1175 14.44 17.1016 14.5357 17.1047 14.6318L17.297 20.6848C17.3268 21.3795 17.1333 22.0655 16.7449 22.6423C16.6439 22.791 16.5266 22.928 16.3952 23.0508C16.1747 23.2517 15.9293 23.4235 15.6651 23.562C14.5697 24.1412 13.2801 24.089 12.1271 23.4193C11.5116 23.0702 10.9956 22.5695 10.6281 21.9648C10.2606 21.3601 10.0539 20.6715 10.0276 19.9643V15.337C10.0305 15.143 9.95833 14.9554 9.82618 14.8134C9.69404 14.6714 9.51212 14.586 9.31844 14.5749C9.22048 14.5719 9.1229 14.5886 9.03151 14.624C8.94012 14.6594 8.85678 14.7129 8.78643 14.7811C8.71608 14.8494 8.66016 14.931 8.62198 15.0213C8.58381 15.1116 8.56416 15.2086 8.56421 15.3066V20.224C8.56421 21.8228 7.34719 23.1453 5.79373 23.2344C5.10819 23.2726 4.43079 23.0706 3.87804 22.6633C3.32529 22.2561 2.93174 21.6689 2.76508 21.0028C2.05633 18.1797 2.03499 16.0837 2.23047 13.6168C2.389 11.6196 2.74411 7.89525 3.07348 6.60616C3.20834 6.11572 3.4808 5.67415 3.85864 5.33365C4.23649 4.99314 4.70393 4.76794 5.2057 4.68466Z" fill="black"/>
</svg>
