<svg width="19" height="19" viewBox="0 0 19 19" fill="none" xmlns="http://www.w3.org/2000/svg">
<path d="M2.75 4.79904H4.25H16.25" stroke="black" stroke-width="1.5" stroke-linecap="round" stroke-linejoin="round"/>
<path d="M6.5 4.79904V3.29904C6.5 2.90122 6.65804 2.51969 6.93934 2.23838C7.22064 1.95708 7.60218 1.79904 8 1.79904H11C11.3978 1.79904 11.7794 1.95708 12.0607 2.23838C12.342 2.51969 12.5 2.90122 12.5 3.29904V4.79904M14.75 4.79904V15.299C14.75 15.6969 14.592 16.0784 14.3107 16.3597C14.0294 16.641 13.6478 16.799 13.25 16.799H5.75C5.35218 16.799 4.97064 16.641 4.68934 16.3597C4.40804 16.0784 4.25 15.6969 4.25 15.299V4.79904H14.75Z" stroke="black" stroke-width="1.5" stroke-linecap="round" stroke-linejoin="round"/>
<path d="M8 8.54904V13.049" stroke="black" stroke-width="1.5" stroke-linecap="round" stroke-linejoin="round"/>
<path d="M11 8.54904V13.049" stroke="black" stroke-width="1.5" stroke-linecap="round" stroke-linejoin="round"/>
</svg>
