<svg width="40" height="40" viewBox="0 0 40 40" fill="none" xmlns="http://www.w3.org/2000/svg">
<g clip-path="url(#clip0)">
<path d="M37.5061 30.9972C37.5061 31.8591 37.1637 32.6858 36.5542 33.2953C35.9447 33.9048 35.1181 34.2472 34.2561 34.2472H5.0061C4.14415 34.2472 3.3175 33.9048 2.70801 33.2953C2.09851 32.6858 1.7561 31.8591 1.7561 30.9972V13.1222C1.7561 12.2602 2.09851 11.4336 2.70801 10.8241C3.3175 10.2146 4.14415 9.87219 5.0061 9.87219H11.5061L14.7561 4.99719H24.5061L27.7561 9.87219H34.2561C35.1181 9.87219 35.9447 10.2146 36.5542 10.8241C37.1637 11.4336 37.5061 12.2602 37.5061 13.1222V30.9972Z" stroke="white" stroke-width="2" stroke-linecap="round" stroke-linejoin="round"/>
<path d="M19.6309 27.7472C23.2207 27.7472 26.1309 24.837 26.1309 21.2472C26.1309 17.6573 23.2207 14.7472 19.6309 14.7472C16.041 14.7472 13.1309 17.6573 13.1309 21.2472C13.1309 24.837 16.041 27.7472 19.6309 27.7472Z" stroke="white" stroke-width="2" stroke-linecap="round" stroke-linejoin="round"/>
</g>
<defs>
<clipPath id="clip0">
<rect width="39" height="39" fill="white" transform="translate(0.131104 0.122192)"/>
</clipPath>
</defs>
</svg>
