<svg width="19" height="19" viewBox="0 0 19 19" fill="none" xmlns="http://www.w3.org/2000/svg">
<g clip-path="url(#clip0)">
<path d="M12.5909 3.88396C12.7763 3.69852 12.9964 3.55142 13.2387 3.45106C13.481 3.3507 13.7407 3.29904 14.003 3.29904C14.2652 3.29904 14.5249 3.3507 14.7672 3.45106C15.0095 3.55142 15.2296 3.69852 15.4151 3.88396C15.6005 4.0694 15.7476 4.28955 15.848 4.53184C15.9483 4.77413 16 5.03382 16 5.29607C16 5.55833 15.9483 5.81801 15.848 6.0603C15.7476 6.30259 15.6005 6.52275 15.4151 6.70819L5.88331 16.24L2 17.299L3.05909 13.4157L12.5909 3.88396Z" stroke="#E20613" stroke-width="2" stroke-linecap="round" stroke-linejoin="round"/>
</g>
<defs>
<clipPath id="clip0">
<rect width="18" height="18" fill="white" transform="translate(0.5 0.299042)"/>
</clipPath>
</defs>
</svg>
