<svg width="15" height="11" viewBox="0 0 15 11" fill="none" xmlns="http://www.w3.org/2000/svg">
<path d="M1.38237 2.42891L2.10121 1.88978H2.64034L3.17947 2.06949L3.53889 2.2492L4.07802 1.53036L4.61715 1.17094H5.51569L6.0548 1.53036L6.4142 1.88978L6.9534 1.17094L7.8519 0.811523H8.5708L9.1099 1.17094L9.2896 1.53036L9.649 1.88978L10.1881 1.17094L10.7273 0.991233L11.4461 1.17094L11.9852 1.53036L12.3447 2.2492L12.5244 3.14775L12.7041 4.5854C12.8838 4.7052 13.2432 5.0167 13.2432 5.3043C13.2432 5.5918 13.6026 6.2627 13.7823 6.5622L13.9621 7.2811V7.9999L13.4229 9.0782L12.7041 9.6173L11.0867 10.1564L10.3679 10.3361L9.649 10.1564L9.2896 9.6173L9.4693 8.8985L10.3679 8.539L9.4693 7.8202L9.2896 8.539L8.9302 9.0782L8.2113 9.2579L7.3128 9.0782L6.7737 8.539L6.4142 7.9999L6.0548 8.539L5.51569 8.7188L4.61715 8.539L4.07802 8.1796L3.7186 7.6405L3.35918 7.9999L2.46063 8.3593L1.56208 8.1796L1.20266 7.2811L1.02295 6.0231V4.5854L1.38237 2.42891Z" fill="#E20613"/>
<path d="M1.08086 2.54716C0.935434 3.11661 0.800663 4.7824 0.785713 4.9703C0.718493 5.819 0.725333 6.59 0.977403 7.5939C1.04602 7.8737 1.19554 8.127 1.4073 8.3223C1.61905 8.5175 1.88365 8.6461 2.16805 8.6919C2.45244 8.7377 2.74401 8.6986 3.00635 8.5797C3.26869 8.4607 3.49015 8.2671 3.64309 8.0229C3.8102 8.3055 4.04737 8.5401 4.33167 8.7042C4.602 8.8633 4.90966 8.948 5.22334 8.9496C5.48943 8.9501 5.7516 8.8855 5.98696 8.7614C6.1122 8.6955 6.2286 8.6139 6.333 8.5185C6.3706 8.4834 6.406 8.446 6.4389 8.4065C6.5853 8.7977 6.8624 9.1261 7.2234 9.3362C7.4785 9.487 7.7692 9.5672 8.0655 9.5686C8.4799 9.565 8.8785 9.4089 9.1852 9.1302C9.1859 9.1295 9.1866 9.1288 9.1873 9.1281C9.1478 9.3124 9.1502 9.5032 9.1942 9.6865C9.2382 9.8697 9.3227 10.0408 9.4415 10.1871C9.5604 10.3334 9.7105 10.4511 9.8809 10.5317C10.0513 10.6123 10.2375 10.6537 10.426 10.6528C10.5687 10.6528 10.7103 10.6283 10.8448 10.5804L12.9481 9.786C13.1719 9.6816 13.3727 9.5338 13.5388 9.351C13.7049 9.1683 13.833 8.9543 13.9156 8.7216L14.221 7.8677C14.3686 7.4803 14.2269 7.1185 14.1019 6.7991L12.8957 3.96353C12.8457 3.37225 12.7523 2.78545 12.6162 2.20788C12.4233 1.37769 11.8276 0.812927 11.0984 0.769077C10.8241 0.752397 10.5501 0.805637 10.3021 0.923807C10.054 1.04198 9.84 1.2212 9.6801 1.44467C9.3218 0.810477 8.6178 0.434637 7.9196 0.520427C7.3252 0.593707 6.8098 0.980097 6.546 1.5412C6.0525 0.953107 5.25558 0.696886 4.56012 0.916336C4.05558 1.07558 3.64158 1.47007 3.43067 1.98565C3.10283 1.63721 2.63766 1.46959 2.18604 1.54483C1.92534 1.58891 1.68271 1.70673 1.48686 1.88436C1.29101 2.06199 1.15012 2.29199 1.08086 2.54716ZM9.6191 8.4154C9.6368 8.3657 9.6538 8.3147 9.6698 8.2611C9.6869 8.2846 9.7047 8.3077 9.723 8.3303L9.6214 8.4133C9.6206 8.4141 9.6199 8.4148 9.6191 8.4154ZM12.9345 5.5558C12.9372 5.4739 12.939 5.3935 12.9402 5.3142L13.6468 6.9773C13.7697 7.2913 13.8411 7.494 13.7637 7.6954C13.763 7.6972 13.7624 7.6989 13.7617 7.7007L13.4551 8.5579C13.3944 8.7293 13.3002 8.887 13.178 9.0217C13.0558 9.1564 12.908 9.2654 12.7433 9.3425L10.6808 10.1201C10.509 10.1812 10.3211 10.1797 10.1504 10.1159C9.9796 10.052 9.8368 9.93 9.7472 9.7712C9.6575 9.6124 9.6268 9.4271 9.6604 9.2479C9.694 9.0687 9.7898 8.9071 9.9308 8.7916L10.0834 8.6668C10.1212 8.6934 10.1599 8.7191 10.2002 8.743C10.4668 8.9017 10.7712 8.9858 11.0814 8.9863C11.3485 8.9862 11.6119 8.9232 11.8502 8.8024C11.9749 8.7399 12.0911 8.6618 12.1962 8.57C12.8051 8.0345 12.8929 6.8386 12.9345 5.5558ZM2.26617 2.02678C2.5855 1.97348 2.91957 2.11448 3.13817 2.39452C3.18367 2.45274 3.24415 2.49749 3.31313 2.52396C3.38211 2.55043 3.457 2.55763 3.52976 2.54479C3.60252 2.53195 3.67042 2.49955 3.72618 2.45107C3.78193 2.40258 3.82344 2.33984 3.84626 2.26956C3.98823 1.83928 4.30997 1.50757 4.70698 1.38229C5.24374 1.21292 5.86819 1.43803 6.2303 1.92996C6.2673 1.98235 6.3157 2.0256 6.3719 2.05641C6.4282 2.08723 6.4907 2.10479 6.5547 2.10776C6.6392 2.1099 6.7223 2.0858 6.7925 2.03879C6.8628 1.99177 6.9167 1.92415 6.9469 1.84523C7.1214 1.39072 7.5265 1.06105 7.979 1.00535C8.5144 0.939427 9.058 1.25677 9.3018 1.77695C9.3331 1.8442 9.3822 1.90164 9.4437 1.94306C9.5053 1.98448 9.577 2.00832 9.6511 2.01201C9.7252 2.0157 9.7989 1.99909 9.8642 1.96398C9.9296 1.92887 9.9841 1.87659 10.0219 1.81278C10.1285 1.63288 10.2826 1.48583 10.4673 1.38775C10.652 1.28968 10.8601 1.24437 11.0689 1.25681C11.6855 1.29386 12.0265 1.82951 12.14 2.31846C12.2948 2.98416 12.4947 4.0424 12.4462 5.5399C12.4192 6.3714 12.3741 7.763 11.8734 8.2031C11.7994 8.2676 11.7174 8.3225 11.6296 8.3664C11.4456 8.4608 11.2404 8.5064 11.0337 8.4987C10.8269 8.491 10.6257 8.4304 10.4492 8.3225C10.2634 8.2135 10.1083 8.0592 9.9983 7.8739C9.8883 7.6887 9.827 7.4787 9.8201 7.2634L9.7424 4.9241C9.7403 4.8593 9.7125 4.798 9.6652 4.7538C9.6178 4.7095 9.5549 4.6859 9.4901 4.688C9.4254 4.6902 9.3641 4.718 9.3198 4.7653C9.2756 4.8126 9.2519 4.8756 9.2541 4.9403L9.3371 7.2761C9.3409 7.3735 9.3354 7.4712 9.3209 7.5676C9.2297 8.1649 9.073 8.5692 8.8542 8.7704C8.6687 8.9391 8.4342 9.044 8.1849 9.0698C7.9355 9.0956 7.6845 9.0409 7.4684 8.9138C7.27 8.7967 7.1048 8.6308 6.9886 8.4319C6.8725 8.2329 6.8092 8.0075 6.8048 7.7772L6.7274 5.3324C6.7263 5.3004 6.719 5.2688 6.7058 5.2396C6.6926 5.2103 6.6738 5.184 6.6504 5.162C6.627 5.1401 6.5995 5.123 6.5695 5.1116C6.5395 5.1003 6.5075 5.095 6.4754 5.096C6.4434 5.097 6.4118 5.1044 6.3826 5.1176C6.3534 5.1308 6.327 5.1496 6.3051 5.173C6.2831 5.1964 6.266 5.2239 6.2546 5.2539C6.2433 5.2839 6.238 5.3159 6.239 5.3479L6.3032 7.3689C6.3132 7.6009 6.2486 7.8299 6.1189 8.0225C6.0852 8.0722 6.046 8.1179 6.0021 8.1589C5.92853 8.226 5.8466 8.2834 5.75838 8.3296C5.39263 8.523 4.96207 8.5055 4.5771 8.2819C4.37159 8.1654 4.19931 7.9982 4.07661 7.7963C3.95392 7.5944 3.8849 7.3645 3.8761 7.1284V5.5834C3.87708 5.5186 3.85299 5.456 3.80887 5.4086C3.76474 5.3612 3.704 5.3326 3.63934 5.329C3.60663 5.328 3.57405 5.3335 3.54354 5.3454C3.51303 5.3572 3.4852 5.375 3.46171 5.3978C3.43822 5.4206 3.41955 5.4479 3.40681 5.478C3.39406 5.5081 3.3875 5.5405 3.38752 5.5733V7.2151C3.38752 7.7489 2.98118 8.1905 2.4625 8.2202C2.23361 8.233 2.00744 8.1655 1.82289 8.0295C1.63833 7.8936 1.50693 7.6975 1.45129 7.4751C1.21465 6.5325 1.20753 5.8327 1.27279 5.0091C1.32572 4.3422 1.44429 3.09873 1.55426 2.66833C1.59929 2.50458 1.69025 2.35715 1.81641 2.24346C1.94257 2.12977 2.09864 2.05458 2.26617 2.02678Z" fill="black"/>
</svg>
