<svg width="22" height="21" viewBox="0 0 22 21" fill="none" xmlns="http://www.w3.org/2000/svg">
<path d="M10.865 5.11248C7.88364 5.11248 5.47756 7.51861 5.47756 10.5C5.47756 13.4814 7.88364 15.8875 10.865 15.8875C13.8463 15.8875 16.2524 13.4814 16.2524 10.5C16.2524 7.51861 13.8463 5.11248 10.865 5.11248ZM10.865 14.0015C8.93696 14.0015 7.36355 12.4281 7.36355 10.5C7.36355 8.57195 8.93696 6.99851 10.865 6.99851C12.793 6.99851 14.3664 8.57195 14.3664 10.5C14.3664 12.4281 12.793 14.0015 10.865 14.0015ZM16.473 3.63624C15.777 3.63624 15.2148 4.19837 15.2148 4.89446C15.2148 5.59056 15.777 6.15269 16.473 6.15269C17.1691 6.15269 17.7312 5.59318 17.7312 4.89446C17.7314 4.72917 17.699 4.56546 17.6359 4.41272C17.5727 4.25997 17.4801 4.12118 17.3632 4.0043C17.2463 3.88742 17.1075 3.79475 16.9548 3.73159C16.802 3.66843 16.6383 3.63603 16.473 3.63624ZM21.3666 10.5C21.3666 9.05002 21.3798 7.61317 21.2983 6.16582C21.2169 4.48469 20.8334 2.99268 19.6041 1.76335C18.3722 0.53139 16.8828 0.150507 15.2017 0.0690774C13.7517 -0.0123526 12.3149 0.000781319 10.8676 0.000781319C9.41765 0.000781319 7.98083 -0.0123526 6.5335 0.0690774C4.8524 0.150507 3.36042 0.534016 2.13111 1.76335C0.899178 2.9953 0.518302 4.48469 0.436874 6.16582C0.355445 7.6158 0.368579 9.05265 0.368579 10.5C0.368579 11.9474 0.355445 13.3868 0.436874 14.8342C0.518302 16.5153 0.901805 18.0073 2.13111 19.2367C3.36305 20.4686 4.8524 20.8495 6.5335 20.9309C7.98346 21.0124 9.42028 20.9992 10.8676 20.9992C12.3176 20.9992 13.7544 21.0124 15.2017 20.9309C16.8828 20.8495 18.3748 20.466 19.6041 19.2367C20.836 18.0047 21.2169 16.5153 21.2983 14.8342C21.3824 13.3868 21.3666 11.95 21.3666 10.5ZM19.0551 16.6939C18.8634 17.172 18.6322 17.5292 18.2618 17.897C17.8915 18.2674 17.5369 18.4985 17.0588 18.6903C15.6771 19.2393 12.3964 19.1158 10.865 19.1158C9.33359 19.1158 6.05019 19.2393 4.66853 18.6929C4.19047 18.5012 3.83323 18.27 3.46549 17.8996C3.09512 17.5292 2.86397 17.1746 2.67222 16.6966C2.12586 15.3123 2.24931 12.0314 2.24931 10.5C2.24931 8.96859 2.12586 5.68512 2.67222 4.30344C2.86397 3.82537 3.09512 3.46812 3.46549 3.10038C3.83586 2.73263 4.19047 2.49884 4.66853 2.30709C6.05019 1.76072 9.33359 1.88418 10.865 1.88418C12.3964 1.88418 15.6798 1.76072 17.0614 2.30709C17.5395 2.49884 17.8967 2.73 18.2645 3.10038C18.6348 3.47075 18.866 3.82537 19.0577 4.30344C19.6041 5.68512 19.4806 8.96859 19.4806 10.5C19.4806 12.0314 19.6041 15.3123 19.0551 16.6939Z" fill="white"/>
</svg>
