<svg width="26" height="15" viewBox="0 0 26 15" fill="none" xmlns="http://www.w3.org/2000/svg">
<path d="M25.2353 13.2498C25.205 13.1845 25.1768 13.1304 25.1506 13.0871C24.7168 12.3059 23.8879 11.347 22.6644 10.2102L22.6386 10.1842L22.6256 10.1714L22.6125 10.1583H22.5994C22.0441 9.62898 21.6925 9.27305 21.5452 9.09082C21.2758 8.7437 21.2154 8.39233 21.3627 8.03631C21.4667 7.76733 21.8575 7.19927 22.5342 6.33136C22.8901 5.87139 23.172 5.50275 23.3801 5.22501C24.8815 3.22905 25.5324 1.95361 25.3327 1.39818L25.2551 1.26838C25.203 1.19024 25.0685 1.11875 24.8519 1.05356C24.6347 0.988499 24.3571 0.97774 24.0185 1.0211L20.2699 1.04699C20.2092 1.02547 20.1225 1.02748 20.0095 1.05356C19.8966 1.07963 19.8402 1.09272 19.8402 1.09272L19.775 1.12532L19.7232 1.16448C19.6798 1.19037 19.632 1.23592 19.5799 1.30102C19.5281 1.3659 19.4847 1.44203 19.4501 1.52879C19.042 2.57879 18.5779 3.55502 18.0572 4.45745C17.7361 4.99555 17.4412 5.4619 17.1719 5.85676C16.9029 6.25148 16.6773 6.54231 16.4952 6.72873C16.3129 6.91533 16.1483 7.06482 16.0005 7.17775C15.8529 7.29072 15.7402 7.33846 15.6622 7.32099C15.584 7.30353 15.5104 7.28621 15.4407 7.26888C15.3193 7.19074 15.2216 7.08447 15.148 6.94998C15.0741 6.81549 15.0243 6.64621 14.9983 6.44228C14.9724 6.23822 14.957 6.06269 14.9527 5.91512C14.9486 5.76772 14.9505 5.55924 14.9593 5.29025C14.9683 5.02113 14.9724 4.83904 14.9724 4.74357C14.9724 4.41377 14.9788 4.05584 14.9917 3.66968C15.0048 3.28353 15.0154 2.97757 15.0243 2.75217C15.0332 2.52654 15.0373 2.28783 15.0373 2.03617C15.0373 1.78451 15.022 1.58715 14.9917 1.4439C14.9618 1.30084 14.9159 1.16197 14.8554 1.02734C14.7945 0.89285 14.7054 0.788812 14.5885 0.714955C14.4714 0.641189 14.3258 0.582651 14.1525 0.539157C13.6925 0.435074 13.1068 0.37877 12.3951 0.370016C10.7812 0.352692 9.74411 0.456912 9.28419 0.68254C9.10196 0.77787 8.93706 0.908122 8.78962 1.07289C8.63338 1.26387 8.61159 1.36809 8.72438 1.38523C9.24512 1.46323 9.61377 1.64984 9.83073 1.94485L9.90892 2.10118C9.96974 2.21398 10.0305 2.41366 10.0912 2.69997C10.1519 2.98628 10.1911 3.303 10.2083 3.64994C10.2516 4.28352 10.2516 4.82586 10.2083 5.27703C10.1649 5.72838 10.1238 6.07974 10.0847 6.3314C10.0455 6.58306 9.98697 6.78699 9.90892 6.94314C9.83073 7.09933 9.77871 7.1948 9.75264 7.22945C9.7266 7.2641 9.7049 7.28594 9.68767 7.29451C9.57488 7.33773 9.45757 7.35975 9.33616 7.35975C9.21457 7.35975 9.06713 7.29893 8.89362 7.17738C8.72014 7.05584 8.54011 6.88889 8.3535 6.67625C8.1669 6.46357 7.95645 6.16637 7.72207 5.78459C7.48787 5.40281 7.24488 4.9516 6.99321 4.43096L6.785 4.05338C6.65484 3.81047 6.47704 3.45678 6.25141 2.99262C6.02564 2.52828 5.82609 2.07912 5.65262 1.64523C5.58328 1.46301 5.4791 1.32427 5.34028 1.22881L5.27513 1.18964C5.23182 1.155 5.16229 1.1182 5.06692 1.079C4.97141 1.03983 4.87174 1.01175 4.76752 0.994471L1.20101 1.02037C0.836561 1.02037 0.589277 1.10293 0.45907 1.26783L0.40696 1.34584C0.380928 1.38929 0.367798 1.45868 0.367798 1.55419C0.367798 1.64965 0.39383 1.76682 0.44594 1.90555C0.966586 3.12921 1.53278 4.30932 2.14451 5.44608C2.75625 6.58284 3.28783 7.49852 3.73895 8.19232C4.19016 8.88662 4.65008 9.5419 5.11871 10.1578C5.58734 10.774 5.89753 11.1688 6.04931 11.3423C6.20126 11.5161 6.32062 11.646 6.40737 11.7328L6.73285 12.0451C6.9411 12.2534 7.24693 12.5029 7.65045 12.7936C8.05406 13.0844 8.5009 13.3707 8.99118 13.6529C9.48155 13.9347 10.052 14.1647 10.7029 14.3425C11.3537 14.5206 11.9872 14.592 12.6033 14.5576H14.1003C14.4038 14.5313 14.6338 14.4359 14.7902 14.2711L14.842 14.2059C14.8768 14.1541 14.9094 14.0736 14.9395 13.9653C14.9699 13.8569 14.9851 13.7374 14.9851 13.6074C14.9762 13.2343 15.0046 12.8981 15.0695 12.5988C15.1344 12.2995 15.2083 12.0739 15.291 11.9219C15.3737 11.7701 15.467 11.642 15.5708 11.5381C15.6748 11.434 15.7489 11.371 15.7924 11.3493C15.8357 11.3275 15.8702 11.3126 15.8962 11.3037C16.1045 11.2344 16.3496 11.3016 16.6319 11.5057C16.9139 11.7096 17.1785 11.9614 17.426 12.2606C17.6733 12.5602 17.9704 12.8962 18.3175 13.2693C18.6647 13.6425 18.9684 13.9199 19.2286 14.1024L19.4888 14.2586C19.6626 14.3628 19.8883 14.4583 20.166 14.5451C20.4432 14.6318 20.6861 14.6535 20.8947 14.6101L24.2268 14.5581C24.5564 14.5581 24.8128 14.5036 24.9947 14.3953C25.177 14.2868 25.2853 14.1673 25.3202 14.0374C25.355 13.9072 25.3569 13.7596 25.3268 13.5946C25.2959 13.43 25.2655 13.3148 25.2353 13.2498Z" fill="white"/>
</svg>
