<svg width="101" height="69" viewBox="0 0 101 69" fill="none" xmlns="http://www.w3.org/2000/svg">
<path d="M73.2915 26.584C73.4193 26.4574 73.5425 26.3353 73.6611 26.2178C73.5425 26.3353 73.4193 26.4574 73.2915 26.584Z" fill="#0048FF"/>
<path d="M61.8237 62.5142L70.21 54.1986L61.8237 62.5142Z" fill="#0048FF"/>
<path d="M44.6324 47.9315H48.7799C49.0446 47.6692 49.1951 47.52 49.4643 47.2532V44.3773C49.1997 44.1151 49.0491 43.9658 48.7799 43.6991H42.4241V48.872H44.6324V47.9315ZM44.6324 45.0285H47.2697V46.584H44.6324V45.0285Z" fill="white"/>
<path d="M50.8194 47.9315H53.4977V48.872H55.7061V47.9315H58.3844C58.649 47.6692 58.7996 47.52 59.0688 47.2532V44.3773C58.8041 44.1151 58.6536 43.9658 58.3844 43.6991H55.7061H53.4977H50.8194C50.5548 43.9613 50.4042 44.1105 50.135 44.3773V47.2532C50.4042 47.52 50.5502 47.6692 50.8194 47.9315ZM55.7061 45.0285H57.0886V46.584H55.7061V45.0285ZM52.1198 45.0285H53.4977V46.584H52.1198V45.0285Z" fill="white"/>
<path d="M75.571 24.3226C75.0417 24.8471 74.6128 25.2721 74.1931 25.6881C74.0744 25.8057 73.9558 25.9233 73.8372 26.0408C73.7779 26.0996 73.7185 26.1584 73.6592 26.2172C73.5406 26.3348 73.4174 26.4568 73.2896 26.5835C73.1619 26.7101 73.0341 26.8367 72.8927 26.9769C72.7558 27.1125 72.6098 27.2572 72.4592 27.4064V40.7548C75.717 41.415 78.8424 42.2154 81.8128 43.1423V40.3614C82.7846 40.4971 83.7109 40.678 84.6143 40.8995C84.9154 40.9719 85.212 41.0487 85.504 41.1301V44.309C89.4005 45.8871 92.9366 47.4019 96.5229 49.0659L96.5184 24.3271H75.571V24.3226ZM85.5086 37.3996C85.1481 37.3318 84.774 37.2685 84.3907 37.2097C83.8797 37.1283 83.3504 37.0515 82.7983 36.9791C82.4789 36.9384 82.1504 36.9022 81.8128 36.8661V29.0252C82.1595 28.6816 82.3557 28.4871 82.7071 28.139H85.504V37.3996H85.5086Z" fill="white"/>
<path d="M68.7472 40.0675V24.3226H55.9352C55.2051 26.5925 54.4614 28.8353 53.7131 31.0691C53.234 29.8346 52.7595 28.6092 52.285 27.3838C51.8789 26.2081 51.4819 25.1862 51.1032 24.3226H38.3596V39.136C41.1657 38.8557 44.0356 38.6748 46.9603 38.6024V29.2242C46.9603 29.2242 49.3147 35.3558 50.5648 38.5663C52.7139 38.5753 54.831 38.6431 56.9207 38.7652C58.0705 35.5005 60.2013 29.179 60.2013 29.179V39.0049C63.126 39.2491 65.9777 39.6063 68.7472 40.0675Z" fill="white"/>
<path d="M22.0478 24.3226C21.2311 27.1985 20.4143 30.1784 19.6022 33.2713C19.1687 31.7158 18.7398 30.1241 18.3064 28.4917C17.9368 26.9182 17.5718 25.5254 17.2204 24.3226H4.47681V48.9394C7.07755 47.4788 9.92924 46.1449 12.9954 44.9557V31.6389C12.9954 31.6389 15.0668 39.8099 16.1573 43.8026C18.2242 43.1017 20.3733 42.4596 22.5999 41.8854C23.8364 37.4856 26.1086 29.9523 26.1086 29.9523V41.0534C28.7915 40.47 31.5701 39.9772 34.4264 39.5883V24.3181H22.0478V24.3226Z" fill="white"/>
<path d="M53.4968 45.0282H52.1189V46.5837H53.4968V45.0282Z" fill="black"/>
<path d="M47.2701 45.0282H44.6328V46.5837H47.2701V45.0282Z" fill="black"/>
<path d="M57.0888 45.0282H55.7063V46.5837H57.0888V45.0282Z" fill="black"/>
<path d="M81.8191 29.0254V36.8662C82.1522 36.9024 82.4807 36.9431 82.8046 36.9792C83.3567 37.0471 83.886 37.1285 84.397 37.2098C84.7803 37.2732 85.1544 37.3319 85.5149 37.3998V28.1391H82.7179C82.3621 28.4873 82.1659 28.6772 81.8191 29.0254Z" fill="black"/>
<path d="M101 49.0572L100.995 24.3183V19.8869H96.524H84.2868L64.22 0H35.694L15.6273 19.8869H4.47145H0V24.3183V48.9351V56.7262C5.15129 53.5338 11.7626 50.1831 14.6189 49.0753L15.8645 48.5914L35.694 68.2432H64.22L84.1225 48.5191C87.9598 50.0746 94.4297 53.1539 100.995 56.6719L101 49.0572ZM50.8194 47.9312C50.5547 47.669 50.4042 47.5198 50.135 47.253V44.3771C50.3996 44.1148 50.5502 43.9656 50.8194 43.6988H53.4977H55.706H58.3843C58.649 43.9611 58.7995 44.1103 59.0687 44.3771V47.253C58.8041 47.5152 58.6535 47.6645 58.3843 47.9312H55.706V48.8718H53.4977V47.9312H50.8194ZM42.4194 43.7034H48.7753C49.0399 43.9656 49.1905 44.1148 49.4597 44.3816V47.2575C49.1951 47.5198 49.0445 47.669 48.7753 47.9358H44.6278V48.8763H42.4194V43.7034ZM56.9243 38.761C54.8346 38.6389 52.7129 38.5756 50.5684 38.562C49.3182 35.3516 46.9639 29.22 46.9639 29.22V38.5982C44.0392 38.6706 41.1693 38.856 38.3632 39.1318V24.3183H51.1068C51.4855 25.182 51.8825 26.2039 52.2886 27.3796C52.7631 28.605 53.2376 29.8304 53.7167 31.0649C54.465 28.8311 55.2041 26.5838 55.9387 24.3183H68.7508V40.0633C65.9812 39.6066 63.125 39.2494 60.2049 38.9961V29.1702C60.2003 29.1748 58.0695 35.4963 56.9243 38.761ZM12.9946 31.6437V44.9604C9.92844 46.1497 7.07675 47.4836 4.47601 48.9441V24.3274H17.2196C17.5755 25.5302 17.9405 26.9229 18.3056 28.4965C18.739 30.1289 19.1725 31.7205 19.6014 33.276C20.4135 30.1831 21.2303 27.2032 22.047 24.3274H34.4302V39.5975C31.5739 39.9819 28.7952 40.4748 26.1123 41.0626V29.9615C26.1123 29.9615 23.8356 37.4994 22.6036 41.8946C20.377 42.4689 18.228 43.1065 16.1611 43.8119C15.066 39.8146 12.9946 31.6437 12.9946 31.6437ZM85.5096 44.3048V41.1259C85.2176 41.0445 84.921 40.9676 84.6199 40.8953C83.721 40.6737 82.7902 40.4929 81.8184 40.3572V43.1381C78.8481 42.2112 75.7226 41.4108 72.4648 40.7506V27.4022C72.6154 27.253 72.7614 27.1083 72.8983 26.9726C73.0352 26.837 73.1675 26.7058 73.2953 26.5792C73.423 26.4526 73.5462 26.3305 73.6648 26.213C73.7242 26.1542 73.7835 26.0954 73.8428 26.0366C73.9614 25.919 74.08 25.8015 74.1987 25.6839C74.6139 25.2724 75.0428 24.8474 75.5766 24.3183H96.5285L96.5331 49.0572C92.9423 47.3977 89.4062 45.8783 85.5096 44.3048Z" fill="black"/>
<path d="M38.0977 5.74279L23.821 19.8915H34.4293H36.5555L41.8255 14.6689H58.0915L63.3614 19.8915H68.7454H73.2169H73.7188H75.5712H76.1005L61.8238 5.74279H38.0977Z" fill="#0048FF"/>
<path d="M61.8253 62.514L70.2161 54.1984L77.8815 46.6018C75.8328 46.0366 73.7203 45.5256 71.5713 45.0915L69.7827 44.7298L68.0123 44.4358C67.8161 44.4042 67.6199 44.3771 67.4238 44.3454L58.0976 53.588H41.8316L32.5191 44.359C30.6803 44.6529 28.8598 44.9965 27.0758 45.3809L25.3739 45.7517L23.7267 46.1767C23.1701 46.3214 22.618 46.4707 22.0659 46.6244L38.0993 62.514H61.8253Z" fill="#E20613"/>
</svg>
